<?xml version="1.0" encoding="UTF-8" standalone="no"?>
<!-- Created with Inkscape (http://www.inkscape.org/) -->

<svg
   width="51.166878mm"
   height="30.453119mm"
   viewBox="0 0 51.166878 30.453119"
   version="1.1"
   id="svg1"
   xmlns="http://www.w3.org/2000/svg"
   xmlns:svg="http://www.w3.org/2000/svg">
  <defs
     id="defs1" />
  <g
     id="layer1"
     transform="translate(-61.993803,-45.271208)">
    <path
       d="m 82.025076,49.533913 c 0,-0.757729 0.08955,-1.48446 0.268649,-2.180193 0.286575,-1.082619 1.509598,-4.585924 5.538309,-5.713965 0.695733,-0.192876 1.425908,-0.289314 2.190525,-0.289314 0.606183,0 1.136594,0.04133 1.591231,0.123992 1.123894,0.168255 1.982613,0.576695 2.63483,1.105595 -0.0069,0 -0.01033,0.02411 -0.01033,0.07233 0.01056,0.683459 0.17567,2.520272 0.17567,3.420112 0,0.04133 -0.01378,0.08955 -0.04133,0.144658 -0.02755,0.04822 -0.09644,0.07233 -0.206653,0.07233 -0.06199,0 -0.137766,-0.01033 -0.227319,-0.031 -0.624786,-0.178508 -1.78967,-1.374244 -3.482109,-1.374244 -1.46864,0 -2.339917,0.802677 -2.717491,1.260585 -0.878111,1.064941 -1.022934,2.40964 -1.022934,3.172129 0,0.468577 0.09035,4.236393 2.996474,4.236393 1.493325,0 2.310971,-0.180603 3.471775,-0.81628 0.01378,-0.0069 0.04822,-0.01033 0.103327,-0.01033 0.04822,0 0.07922,0.02067 0.09299,0.062 0.06991,0.116483 0.01518,2.762298 1e-5,3.141131 0,0.103327 -0.0034,0.15499 -0.01033,0.15499 -1.124985,0.721786 -2.762173,0.943773 -4.401715,0.97127 -2.520234,0 -4.131924,-1.246096 -4.939015,-2.097532 -1.712983,-1.827183 -2.004537,-4.100364 -2.004537,-5.424649 z m 12.657516,6.230597 c 0.33147,-0.664006 0.551721,-1.342911 0.826613,-2.01487 -0.660503,-0.990755 -1.074593,-1.875633 -1.074593,-2.614164 0.788389,-0.119125 1.54791,-0.06381 2.180192,-0.10332 1.184227,-2.930393 2.207365,-5.880889 3.451106,-8.803432 0.0275,-0.06888 0.0723,-0.13088 0.13433,-0.185988 0.11782,-0.106 0.26023,-0.188837 0.43397,-0.258316 0.20983,-0.07988 1.80038,-0.568298 2.36618,-0.568298 h 0.18599 c 0.11022,0 0.21354,0.02755 0.30998,0.08266 0.10333,0.04822 0.17221,0.148103 0.20665,0.299648 2.25136,5.783406 2.41503,9.383894 4.80469,13.907769 0.0339,0.06421 0.0999,0.144657 0.13432,0.185988 0.0345,0.03444 0.0517,0.07233 0.0517,0.113659 0,0.04133 -0.0654,0.08266 -0.19632,0.123992 -1.50302,0.454302 -2.99906,1.043019 -3.61644,1.188257 -0.11021,0.03444 -0.18943,0.05166 -0.23765,0.05166 h -0.062 c -0.0964,0 -0.16532,-0.031 -0.20666,-0.09299 -0.35901,-0.872054 -0.66794,-1.755716 -0.87831,-2.645163 -0.0388,-0.09679 -0.32394,-0.142038 -0.34098,-0.14466 -0.0827,-0.01377 -0.17221,-0.02066 -0.26865,-0.02066 -0.43863,-0.0314 -1.59128,0.06129 -3.88508,-0.02067 -0.350013,0.96927 -0.693627,1.795016 -1.115928,2.738157 -0.01377,0.05511 -0.04821,0.09988 -0.103326,0.134325 -0.112339,0.08024 -0.22307,0.0456 -0.22732,0.04133 -1.199737,-0.432894 -2.081798,-0.878543 -2.872481,-1.39491 z m 6.964218,-9.289067 c -0.62311,2.310591 -1.27933,3.85767 -1.48791,4.587704 0.008,0.05872 -0.006,0.117519 -0.0103,0.17565 h 2.47984 c -0.39662,-1.583121 -0.73945,-3.169865 -0.9816,-4.76336 z m 12.82284,9.216739 c -0.007,0.06199 -0.0206,0.123989 -0.0413,0.185988 -0.0138,0.05511 -0.0586,0.09988 -0.13433,0.134324 -1.19682,0.402746 -2.298,0.911163 -3.58543,1.219259 -0.32445,-0.04161 -0.33471,-0.168562 -0.36165,-0.340979 -0.009,-0.844933 0.10262,-1.688074 0.1757,-2.531503 0.40734,-3.985274 -0.10999,-0.02383 0.71297,-9.537051 0,-0.01378 -0.0207,-0.02067 -0.062,-0.02067 -0.21922,0 -0.54771,0.120222 -2.00454,0.340976 -0.1183,0 -0.23762,-0.04449 -0.23762,-0.12399 0,-0.02755 0.007,-0.04822 0.0207,-0.062 l 1.6739,-2.924144 c 1.92365,-0.445584 3.95911,-0.707325 6.03427,-0.723288 5.16198,0.01743 5.65197,2.918557 5.65197,4.019407 0,2.1807 -2.10916,3.467247 -3.0068,3.916081 -0.19288,0.08955 -0.32376,0.148102 -0.39265,0.175655 0,0.01378 0.003,0.031 0.0103,0.05166 0.80628,1.207666 1.35253,2.614984 3.08943,5.186998 0.11711,0.103327 0.25143,0.168767 0.40298,0.196321 0.46332,0.06319 0.53191,0.02781 0.75428,0.062 0.0895,0.0069 0.13433,0.04822 0.13433,0.123992 0,0.05511 -0.0585,0.120547 -0.17566,0.19632 -0.61037,0.381528 -2.24169,1.005534 -3.84375,1.85988 -0.2114,0.123259 -0.42886,0.12399 -0.43397,0.12399 -0.12399,0 -0.23076,-0.031 -0.32031,-0.09299 -0.1465,-0.09021 -0.27785,-0.238645 -0.38231,-0.46497 -1.04666,-2.2334 -2.1132,-4.463993 -3.17213,-6.695567 z m 0.63029,-6.995215 c 2.46935,0 5.1046,-4.505043 1.39491,-4.505043 -0.46871,0 -0.52601,0.06303 -0.9816,0.11366 z m 9.27874,8.359127 c -0.0758,-0.01378 -0.13088,-0.05167 -0.16533,-0.11366 -0.0607,-0.109107 -0.0733,-0.261631 -0.0104,-0.371976 l 1.27092,-2.428176 c 0.26729,-3.102325 0.49558,-6.206088 0.71296,-9.309733 -0.68957,0.168195 -1.39438,0.311004 -2.13886,0.371974 -0.24539,0 -0.27948,-0.402431 -0.16536,-0.516633 1.1914,-0.919702 1.88724,-2.067877 3.25479,-2.913812 0.21354,-0.123992 0.46841,-0.22043 0.76461,-0.289315 0.29621,-0.06888 0.65785,-0.113659 1.08493,-0.134324 8.98206,-0.570214 9.69205,4.735284 9.69205,6.426919 0,2.171644 -0.681,5.290096 -4.09174,7.28453 -2.71845,1.710479 -6.43185,1.994204 -10.20857,1.994206 z m 6.00327,-12.440531 c -0.37213,3.599617 -0.64074,7.521391 -0.81626,9.278735 5.93766,0 5.84876,-9.444057 1.32259,-9.444057 -0.0827,0 -0.17222,0.02067 -0.26865,0.062 -0.0964,0.03444 -0.17566,0.06888 -0.23766,0.103326 z m 9.81604,8.05948 c 0,-0.0069 -0.003,-0.01378 -0.0103,-0.02067 v -0.02067 c 0,-0.117103 0.062,-0.175655 0.18599,-0.175655 0.062,0 0.13089,0.031 0.20666,0.09299 0.66088,0.624177 1.5623,1.146926 2.72782,1.146926 1.1868,0 1.95581,-0.664762 1.46724,-1.467238 -0.0964,-0.158434 -0.22388,-0.292759 -0.38231,-0.402974 -0.0299,-0.01994 -2.68619,-1.793686 -3.89542,-3.812753 -0.23861,-0.649558 -0.28935,-1.331695 -0.28935,-2.200858 0,-0.606183 0.14466,-1.181369 0.43397,-1.725556 0.2787,-0.524222 1.68618,-2.738156 5.57964,-2.738156 0.72925,0.02711 1.4089,0.176312 2.03554,0.382308 0.0324,0.01134 0.71708,0.253472 0.92994,0.537299 0.0482,0.05511 0.0792,0.141212 0.093,0.258317 0.10666,1.724978 0.0493,1.327806 0.1654,3.368449 0,0.43142 -0.38929,0.271961 -0.43394,0.227311 -0.19977,-0.199765 -0.40642,-0.396086 -0.61996,-0.588962 -1.04684,-0.945548 -1.9089,-0.985648 -2.28352,-1.002269 -1.11929,0.0027 -1.47257,0.545025 -1.57056,1.105592 0,0.656861 0.18063,0.871131 0.527,1.095263 l 2.47984,1.684225 c 1.94208,1.382992 2.1802,2.781024 2.1802,3.76109 0,1.071887 -0.41672,1.926898 -0.88861,2.552169 -0.15738,0.204596 -1.85893,2.32485 -4.78403,2.32485 -1.65929,0 -2.7601,-0.112294 -3.67843,-0.692292 z"
       id="text-cards"
       style="font-size:21.1613px;font-family:'Carter One';-inkscape-font-specification:'Carter One';fill:#227b94;stroke-width:1.5871;stroke-linecap:round;stroke-linejoin:round"
       transform="scale(0.75579083,1.3231174)"
       aria-label="CARDS" />
    <g
       id="g2"
       transform="matrix(0.55072021,0,0,0.61822359,40.519527,9.0582962)">
      <rect
         style="fill:#f8f8f8;fill-opacity:1;stroke:#16325b;stroke-width:1.05833;stroke-linecap:round;stroke-linejoin:round;stroke-dasharray:none;stroke-opacity:0.909804"
         id="rect1"
         width="14.371394"
         height="18.613251"
         x="29.646065"
         y="85.813187"
         rx="1.3229166"
         ry="1.3229166"
         transform="rotate(-25.380132)" />
      <text
         xml:space="preserve"
         style="font-style:normal;font-variant:normal;font-weight:normal;font-stretch:normal;font-size:10.5833px;font-family:sans-serif;-inkscape-font-specification:sans-serif;fill:#227b94;fill-opacity:1;stroke:#227b94;stroke-width:0.79375;stroke-linecap:round;stroke-linejoin:round;stroke-dasharray:none;stroke-opacity:1"
         x="31.483067"
         y="98.195633"
         id="text3"
         transform="rotate(-25.380132)"><tspan
           id="tspan3"
           style="font-style:normal;font-variant:normal;font-weight:normal;font-stretch:normal;font-size:10.5833px;font-family:sans-serif;-inkscape-font-specification:sans-serif;fill:#227b94;fill-opacity:1;stroke:#227b94;stroke-width:0.79375;stroke-dasharray:none;stroke-opacity:1"
           x="31.483067"
           y="98.195633">日</tspan></text>
      <rect
         style="fill:#f8f8f8;fill-opacity:1;stroke:#16325b;stroke-width:1.05833;stroke-linecap:round;stroke-linejoin:round;stroke-dasharray:none;stroke-opacity:0.909804"
         id="rect2"
         width="14.371394"
         height="18.613251"
         x="77.978683"
         y="59.921623"
         rx="1.3229166"
         ry="1.3229166" />
      <text
         xml:space="preserve"
         style="font-style:normal;font-variant:normal;font-weight:normal;font-stretch:normal;font-size:10.5833px;font-family:sans-serif;-inkscape-font-specification:sans-serif;fill:#ffdc7f;fill-opacity:1;stroke:#ffdc7f;stroke-width:1.05833;stroke-linecap:round;stroke-linejoin:round;stroke-dasharray:none;stroke-opacity:1"
         x="79.938255"
         y="72.825653"
         id="text4"><tspan
           id="tspan4"
           style="fill:#ffdc7f;fill-opacity:1;stroke:#ffdc7f;stroke-width:1.05833;stroke-dasharray:none;stroke-opacity:1"
           x="79.938255"
           y="72.825653">本</tspan></text>
      <rect
         style="fill:#f8f8f8;fill-opacity:1;stroke:#16325b;stroke-width:1.05833;stroke-linecap:round;stroke-linejoin:round;stroke-dasharray:none;stroke-opacity:0.909804"
         id="rect3"
         width="14.371394"
         height="18.613251"
         x="109.15301"
         y="18.446093"
         rx="1.3229166"
         ry="1.3229166"
         transform="rotate(22.73166)" />
      <text
         xml:space="preserve"
         style="font-style:normal;font-variant:normal;font-weight:normal;font-stretch:normal;font-size:10.5833px;font-family:sans-serif;-inkscape-font-specification:sans-serif;fill:#333333;fill-opacity:1;stroke:#333333;stroke-width:0.79375;stroke-linecap:round;stroke-linejoin:round;stroke-dasharray:none;stroke-opacity:1"
         x="111.21117"
         y="31.375952"
         id="text7"
         transform="rotate(22.73166)"><tspan
           id="tspan7"
           style="fill:#333333;fill-opacity:1;stroke:#333333;stroke-width:0.79375;stroke-dasharray:none;stroke-opacity:1"
           x="111.21117"
           y="31.375952">語</tspan></text>
    </g>
  </g>
</svg>
