<?xml version="1.0" encoding="UTF-8" standalone="no"?>
<!-- Created with Inkscape (http://www.inkscape.org/) -->

<svg
   width="65.028877mm"
   height="15.085126mm"
   viewBox="0 0 65.028877 15.085126"
   version="1.1"
   id="svg1"
   inkscape:version="1.3 (0e150ed6c4, 2023-07-21)"
   sodipodi:docname="gumponents.svg"
   xmlns:inkscape="http://www.inkscape.org/namespaces/inkscape"
   xmlns:sodipodi="http://sodipodi.sourceforge.net/DTD/sodipodi-0.dtd"
   xmlns="http://www.w3.org/2000/svg"
   xmlns:svg="http://www.w3.org/2000/svg">
  <sodipodi:namedview
     id="namedview1"
     pagecolor="#ffffff"
     bordercolor="#000000"
     borderopacity="0.25"
     inkscape:showpageshadow="2"
     inkscape:pageopacity="0.0"
     inkscape:pagecheckerboard="0"
     inkscape:deskcolor="#d1d1d1"
     inkscape:document-units="mm"
     inkscape:zoom="1.8457708"
     inkscape:cx="339.69547"
     inkscape:cy="396.85316"
     inkscape:window-width="1392"
     inkscape:window-height="695"
     inkscape:window-x="465"
     inkscape:window-y="146"
     inkscape:window-maximized="0"
     inkscape:current-layer="g2" />
  <defs
     id="defs1">
    <inkscape:path-effect
       effect="powerstroke"
       id="path-effect23"
       is_visible="true"
       lpeversion="1.3"
       scale_width="1"
       interpolator_type="CentripetalCatmullRom"
       interpolator_beta="0.2"
       start_linecap_type="zerowidth"
       end_linecap_type="zerowidth"
       offset_points="0.19958656,0.10503144 | 0.47361474,0.12731185 | 0.75400877,0.11619842"
       linejoin_type="round"
       miter_limit="4"
       not_jump="false"
       sort_points="true"
       message="&lt;b&gt;Ctrl + click&lt;/b&gt; on existing node and move it" />
    <inkscape:path-effect
       effect="powerstroke"
       id="path-effect22"
       is_visible="true"
       lpeversion="1.3"
       scale_width="1"
       interpolator_type="CentripetalCatmullRom"
       interpolator_beta="0.2"
       start_linecap_type="zerowidth"
       end_linecap_type="zerowidth"
       offset_points="0.49494625,0.13237021 | 1.188454,0.1111134 | 1.5097678,0.15614649"
       linejoin_type="round"
       miter_limit="4"
       not_jump="false"
       sort_points="true"
       message="&lt;b&gt;Ctrl + click&lt;/b&gt; on existing node and move it" />
    <inkscape:path-effect
       effect="powerstroke"
       id="path-effect21"
       is_visible="true"
       lpeversion="1.3"
       scale_width="1"
       interpolator_type="CentripetalCatmullRom"
       interpolator_beta="0.2"
       start_linecap_type="zerowidth"
       end_linecap_type="zerowidth"
       offset_points="0.29459388,0.14215199 | 0.51455852,0.16467428 | 0.85648267,0.10206928"
       linejoin_type="round"
       miter_limit="4"
       not_jump="false"
       sort_points="true"
       message="&lt;b&gt;Ctrl + click&lt;/b&gt; on existing node and move it" />
    <inkscape:path-effect
       effect="powerstroke"
       id="path-effect20"
       is_visible="true"
       lpeversion="1.3"
       scale_width="1"
       interpolator_type="CentripetalCatmullRom"
       interpolator_beta="0.2"
       start_linecap_type="zerowidth"
       end_linecap_type="zerowidth"
       offset_points="0.22803331,0.14179758 | 0.46745579,0.20791601 | 0.75122713,0.17005316"
       linejoin_type="round"
       miter_limit="4"
       not_jump="false"
       sort_points="true"
       message="&lt;b&gt;Ctrl + click&lt;/b&gt; on existing node and move it" />
    <inkscape:path-effect
       effect="powerstroke"
       id="path-effect19"
       is_visible="true"
       lpeversion="1.3"
       scale_width="1"
       interpolator_type="CentripetalCatmullRom"
       interpolator_beta="0.2"
       start_linecap_type="zerowidth"
       end_linecap_type="zerowidth"
       offset_points="0.17225549,0.15043437 | 0.46399201,0.16382929 | 0.64603679,0.13199641"
       linejoin_type="round"
       miter_limit="4"
       not_jump="false"
       sort_points="true"
       message="&lt;b&gt;Ctrl + click&lt;/b&gt; on existing node and move it" />
    <inkscape:path-effect
       effect="powerstroke"
       id="path-effect18"
       is_visible="true"
       lpeversion="1.3"
       scale_width="1"
       interpolator_type="CentripetalCatmullRom"
       interpolator_beta="0.2"
       start_linecap_type="zerowidth"
       end_linecap_type="zerowidth"
       offset_points="0.21965633,0.11889089 | 0.44502486,0.20714201 | 0.73487324,0.21551881"
       linejoin_type="round"
       miter_limit="4"
       not_jump="false"
       sort_points="true"
       message="&lt;b&gt;Ctrl + click&lt;/b&gt; on existing node and move it" />
    <inkscape:path-effect
       effect="powerstroke"
       id="path-effect17"
       is_visible="true"
       lpeversion="1.3"
       scale_width="1"
       interpolator_type="CentripetalCatmullRom"
       interpolator_beta="0.2"
       start_linecap_type="zerowidth"
       end_linecap_type="zerowidth"
       offset_points="0.19003922,0.11211856 | 0.45638304,0.14844793 | 0.69975631,0.15395143"
       linejoin_type="round"
       miter_limit="4"
       not_jump="false"
       sort_points="true"
       message="&lt;b&gt;Ctrl + click&lt;/b&gt; on existing node and move it" />
    <inkscape:path-effect
       effect="powerstroke"
       id="path-effect16"
       is_visible="true"
       lpeversion="1.3"
       scale_width="1"
       interpolator_type="CentripetalCatmullRom"
       interpolator_beta="0.2"
       start_linecap_type="zerowidth"
       end_linecap_type="zerowidth"
       offset_points="0.10819328,0.13080931 | 0.68344575,0.15420492 | 0.36436941,0.16699811"
       linejoin_type="round"
       miter_limit="4"
       not_jump="false"
       sort_points="true"
       message="&lt;b&gt;Ctrl + click&lt;/b&gt; on existing node and move it" />
    <inkscape:path-effect
       effect="powerstroke"
       id="path-effect15"
       is_visible="true"
       lpeversion="1.3"
       scale_width="1"
       interpolator_type="CentripetalCatmullRom"
       interpolator_beta="0.2"
       start_linecap_type="zerowidth"
       end_linecap_type="zerowidth"
       offset_points="0.14944912,0.096327733 | 0.45208327,0.16142782 | 0.69959494,0.13485862"
       linejoin_type="round"
       miter_limit="4"
       not_jump="false"
       sort_points="true"
       message="&lt;b&gt;Ctrl + click&lt;/b&gt; on existing node and move it" />
    <inkscape:path-effect
       effect="powerstroke"
       id="path-effect5"
       is_visible="true"
       lpeversion="1.3"
       scale_width="1"
       interpolator_type="CentripetalCatmullRom"
       interpolator_beta="0.2"
       start_linecap_type="zerowidth"
       end_linecap_type="zerowidth"
       offset_points="0.15763333,0.087418606 | 0.5,0.1322915 | 0.81076584,0.088046722"
       linejoin_type="round"
       miter_limit="4"
       not_jump="false"
       sort_points="true"
       message="&lt;b&gt;Ctrl + click&lt;/b&gt; on existing node and move it" />
    <inkscape:path-effect
       effect="powerstroke"
       id="path-effect4"
       is_visible="true"
       lpeversion="1.3"
       scale_width="1"
       interpolator_type="CentripetalCatmullRom"
       interpolator_beta="0.2"
       start_linecap_type="zerowidth"
       end_linecap_type="zerowidth"
       offset_points="0.13461464,0.092816203 | 0.46408783,0.12408865 | 0.82505589,0.11701285"
       linejoin_type="round"
       miter_limit="4"
       not_jump="false"
       sort_points="true"
       message="&lt;b&gt;Ctrl + click&lt;/b&gt; on existing node and move it" />
    <inkscape:path-effect
       effect="powerstroke"
       id="path-effect3"
       is_visible="true"
       lpeversion="1.3"
       scale_width="1"
       interpolator_type="CentripetalCatmullRom"
       interpolator_beta="0.2"
       start_linecap_type="zerowidth"
       end_linecap_type="zerowidth"
       offset_points="0.055602105,0.073674357 | 0.41212675,0.20356363 | 0.84278956,0.11645658"
       linejoin_type="round"
       miter_limit="4"
       not_jump="false"
       sort_points="true"
       message="&lt;b&gt;Ctrl + click&lt;/b&gt; on existing node and move it" />
    <inkscape:path-effect
       effect="powerstroke"
       id="path-effect2"
       is_visible="true"
       lpeversion="1.3"
       scale_width="1"
       interpolator_type="CentripetalCatmullRom"
       interpolator_beta="0.2"
       start_linecap_type="zerowidth"
       end_linecap_type="zerowidth"
       offset_points="0.024412383,0.091566909 | 0.35060894,0.14514063 | 0.99850801,0.043794705"
       linejoin_type="round"
       miter_limit="4"
       not_jump="false"
       sort_points="true"
       message="&lt;b&gt;Ctrl + click&lt;/b&gt; on existing node and move it" />
  </defs>
  <g
     inkscape:label="Layer 1"
     inkscape:groupmode="layer"
     id="layer1"
     transform="translate(-58.302019,-70.023306)">
    <g
       id="g2"
       transform="matrix(1.0082795,0,0,0.84057685,-0.54370274,13.507377)">
      <path
         d="m 71.162419,82.22912 c -0.296157,0.352057 -0.661625,0.65936 -1.096407,0.921909 -0.434781,0.262553 -0.90107,0.48035 -1.398864,0.653394 -0.497794,0.173045 -1.008192,0.301336 -1.531189,0.384875 -0.522999,0.08951 -1.020793,0.13426 -1.493382,0.13426 -0.913673,0 -1.754882,-0.155145 -2.523627,-0.465431 -0.768746,-0.310287 -1.57926,-0.632729 -1.994327,-1.279933 0.107606,-1.096501 0.240896,-0.355741 -1.767873,-1.375021 -1.304735,-0.662043 2.628673,-0.88492 -0.174919,-2.49178 -0.172193,-0.09869 0.15045,-1.728877 0.402151,-2.362806 0.15753,-0.62654 0.381223,-1.214296 0.671078,-1.763265 0.296155,-0.554936 0.655323,-1.062136 1.077503,-1.521599 0.42218,-0.465431 0.90107,-0.865224 1.436671,-1.199379 0.535601,-0.334155 1.121611,-0.593722 1.758031,-0.778701 0.636421,-0.184979 1.31695,-0.277468 2.041587,-0.277468 0.270951,0 0.560805,0.01193 0.869564,0.03581 0.308758,0.0179 0.614365,0.0537 0.916823,0.107407 0.308758,0.04773 0.608065,0.116357 0.89792,0.205864 0.289853,0.08951 0.554504,0.199896 0.79395,0.331171 l -0.26465,3.419124 c -0.352868,-0.125308 -0.718336,-0.208848 -1.096408,-0.250617 -0.371769,-0.04773 -0.737239,-0.0716 -1.096407,-0.0716 -0.504095,0 -0.976684,0.07458 -1.417768,0.223766 -0.434781,0.143209 -0.816004,0.352055 -1.143666,0.62654 -0.321361,0.274485 -0.576558,0.60864 -0.765594,1.002465 -0.189036,0.393825 -0.283553,0.838371 -0.283553,1.333637 0,0.310288 0.04411,0.611624 0.132324,0.90401 0.08822,0.286418 0.220542,0.543002 0.396976,0.76975 0.182734,0.220781 0.406426,0.399792 0.671076,0.537035 0.270952,0.137242 0.58286,0.205863 0.935727,0.205863 0.239445,0 0.485192,-0.02983 0.737239,-0.08951 0.258349,-0.05967 0.478891,-0.16111 0.661625,-0.304318 l 0.03781,-0.698147 -2.26843,-0.03581 0.113422,-2.685176 c 0.938878,-0.02983 1.877756,-0.0537 2.816633,-0.0716 0.938876,-0.02387 1.884055,-0.0537 2.835535,-0.08951 1.127735,1.527479 -0.63019,3.022511 1.228489,3.631066 2.148796,0.703544 -3.896734,1.350354 -1.115065,2.383722 z"
         id="text1"
         style="font-size:23.055px;font-family:'Luckiest Guy';-inkscape-font-specification:'Luckiest Guy';fill:none;stroke:#ef002f;stroke-width:1.56975;stroke-linecap:round;stroke-linejoin:round;stroke-opacity:1"
         aria-label="G"
         sodipodi:nodetypes="csscsscsscccsssccscccsccsscccscccccccscc"
         transform="matrix(0.9917885,0,0,1.1896592,0.53923812,-16.069176)"
         inkscape:export-filename="../export/gumponents.svg"
         inkscape:export-xdpi="417.21692"
         inkscape:export-ydpi="417.21692" />
      <path
         style="fill:#ffff13;fill-opacity:1;stroke:#ffff13;stroke-width:0.264583;stroke-linecap:round;stroke-linejoin:round;stroke-dasharray:none;stroke-opacity:1"
         d="m 60.974206,69.459012 c -0.595611,-0.595272 -0.101333,-1.294173 0.144246,-1.442259 0.312778,-0.18309 1.231441,-0.264939 1.297898,0.32943 l 0.943586,-0.557119 c -1.105508,1.072128 -0.901505,1.16966 -2.935611,2.182171 z"
         id="path1"
         sodipodi:nodetypes="cccccc" />
      <path
         style="fill:#ef002f;fill-opacity:1;fill-rule:nonzero;stroke:none;stroke-width:0.264583;stroke-linecap:round;stroke-linejoin:round;stroke-dasharray:none;stroke-opacity:1"
         d="m 62.372195,67.973916 c -0.01952,-5.59e-4 -0.06481,-0.02786 -0.116274,-0.005 -0.132746,0.05899 -0.404642,0.360154 -0.618171,0.537662 -0.07009,0.05826 -0.14848,0.121641 -0.242776,0.192809 -0.319764,0.241332 -0.707785,0.469671 -0.721097,0.542851 -0.003,0.01668 0.01529,0.03321 0.01834,0.03985 0.0038,0.0062 0.0073,0.03067 0.02281,0.03747 0.06545,0.02868 0.485825,-0.145534 0.84461,-0.390508 0.102216,-0.06979 0.191253,-0.138618 0.264075,-0.199581 0.227249,-0.190243 0.528681,-0.497931 0.570639,-0.64066 0.01633,-0.05555 -0.0184,-0.0958 -0.02216,-0.114905 z"
         id="path2"
         sodipodi:nodetypes="cc"
         inkscape:path-effect="#path-effect2"
         inkscape:original-d="M 62.372195,67.973916 C 61.727002,68.735988 61.19101,69.01662 60.69222,69.282098"
         transform="translate(0.09764062,0.12193412)" />
      <path
         style="fill:#f2f2f2;fill-rule:nonzero;stroke:none;stroke-width:0.264583;stroke-linecap:round;stroke-linejoin:round"
         d="m 69.316382,75.7273 c 0.168741,0.01517 0.4607,0.05551 0.743163,0.06118 0.16177,0.0032 0.322376,-0.0021 0.48097,-0.0064 0.146399,-0.004 0.271708,-0.0062 0.379989,0.0015 0.07653,0.0054 0.139431,0.01553 0.193063,0.03115 0.02165,0.0063 0.04234,0.01372 0.06215,0.0223 0.03308,0.01434 0.06363,0.03193 0.09257,0.05328 0.02835,0.02092 0.0556,0.04579 0.08259,0.0755 0.057,0.06275 0.110509,0.144405 0.169218,0.250022 0.04002,0.07199 0.07876,0.148275 0.119965,0.228593 0.02771,0.05402 0.06397,0.122778 0.09751,0.186734 0.115467,0.220168 0.241207,0.466614 0.30354,0.606627 -0.02879,-0.137314 -0.07455,-0.430006 -0.128919,-0.670602 -0.01705,-0.07545 -0.03523,-0.146474 -0.05533,-0.210886 -0.02779,-0.08906 -0.06186,-0.178435 -0.101261,-0.261221 -0.05791,-0.121682 -0.126997,-0.228791 -0.211187,-0.314001 -0.04067,-0.04116 -0.08394,-0.07633 -0.130218,-0.105982 -0.04723,-0.03027 -0.09598,-0.05377 -0.146097,-0.07224 -0.02984,-0.01099 -0.05983,-0.02008 -0.08983,-0.02772 -0.07411,-0.01888 -0.153935,-0.0301 -0.242222,-0.03517 -0.122668,-0.007 -0.260611,-0.002 -0.407785,0.0094 -0.152113,0.01184 -0.330745,0.03214 -0.480162,0.05382 -0.258066,0.03744 -0.591157,0.105856 -0.731708,0.124099 z"
         id="path4"
         sodipodi:nodetypes="cc"
         inkscape:path-effect="#path-effect4"
         inkscape:original-d="m 69.316382,75.7273 c 2.092729,-0.04125 2.080411,-0.481848 2.724716,1.510489"
         transform="matrix(0.9917885,0,0,1.1896592,0.53923812,-16.069176)" />
      <path
         style="fill:#f2f2f2;fill-rule:nonzero;stroke:none;stroke-width:0.264583;stroke-linecap:round;stroke-linejoin:round"
         d="m 72.275242,79.215344 c 0.01582,0.01624 0.02913,0.03364 0.04495,0.04988 0.01623,0.01664 0.03653,0.03553 0.06107,0.05482 0.01211,0.0095 0.02514,0.01906 0.03881,0.02815 0.03515,0.02338 0.07809,0.04913 0.130681,0.08129 0.13459,0.0823 0.271613,0.171042 0.398342,0.285218 0.06121,0.05515 0.11692,0.113248 0.163673,0.175254 0.04815,0.06386 0.08457,0.128907 0.109068,0.19657 0.01305,0.03604 0.02256,0.0724 0.02884,0.109421 0.0068,0.04025 0.01154,0.08413 0.01094,0.133538 -0.0016,0.130067 -0.04093,0.249514 -0.07805,0.327536 0.05397,-0.05982 0.146392,-0.162921 0.201729,-0.300798 0.0218,-0.05432 0.03575,-0.10893 0.04146,-0.162374 0.0053,-0.04927 0.0049,-0.100507 -0.0021,-0.153117 -0.01318,-0.09964 -0.04892,-0.196932 -0.10385,-0.288665 -0.0528,-0.08817 -0.120436,-0.166408 -0.194062,-0.233433 -0.145562,-0.132511 -0.325539,-0.232553 -0.480832,-0.28919 -0.0632,-0.02305 -0.118916,-0.03761 -0.163998,-0.04478 -0.01793,-0.0029 -0.0356,-0.0044 -0.05257,-0.0048 -0.0344,-8.83e-4 -0.06448,0.0028 -0.08897,0.0088 -0.03535,0.0086 -0.05471,0.02054 -0.06515,0.02673 z"
         id="path5"
         sodipodi:nodetypes="cc"
         inkscape:path-effect="#path-effect5"
         inkscape:original-d="m 72.275242,79.215344 c 0.232812,0.03085 1.498245,0.55879 0.908333,1.441678"
         transform="matrix(0.9917885,0,0,1.1896592,0.53923812,-16.069176)" />
      <path
         style="fill:#f2f2f2;fill-rule:nonzero;stroke:none;stroke-width:0.264583;stroke-linecap:round;stroke-linejoin:round"
         d="m 66.58545,70.194924 c 0.107643,0.02576 0.331776,0.09272 0.613662,0.152231 0.452698,0.09557 1.117758,0.216211 1.683287,0.362763 0.290316,0.07523 0.522388,0.148946 0.71405,0.225836 0.05863,0.02352 0.111582,0.04658 0.159834,0.06916 0.111667,0.05226 0.2089,0.106926 0.291542,0.166874 0.108711,0.07886 0.188976,0.164469 0.247238,0.264544 0.06195,0.106415 0.10035,0.231622 0.119441,0.381994 0.01673,0.131759 0.01709,0.271297 0.01095,0.406259 -0.0025,0.05411 -0.0055,0.109426 -0.0093,0.167354 -0.01975,0.298311 -0.05953,0.617455 -0.08812,0.783174 0.05716,-0.144044 0.196511,-0.462483 0.282275,-0.747546 0.01732,-0.05757 0.03278,-0.114533 0.04581,-0.170464 0.03211,-0.137931 0.05873,-0.294279 0.06375,-0.450966 0.0057,-0.179286 -0.01649,-0.360916 -0.09043,-0.532971 -0.0718,-0.16707 -0.185138,-0.308311 -0.33579,-0.425943 -0.111241,-0.08686 -0.237945,-0.157031 -0.371531,-0.214146 -0.05818,-0.02487 -0.120905,-0.04867 -0.188618,-0.07142 -0.21827,-0.07335 -0.478157,-0.132433 -0.781319,-0.182497 -0.560254,-0.09252 -1.306265,-0.155857 -1.733941,-0.178112 -0.288325,-0.015 -0.522082,-0.0047 -0.632755,-0.0061 z"
         id="path3"
         sodipodi:nodetypes="cc"
         inkscape:path-effect="#path-effect3"
         inkscape:original-d="m 66.58545,70.194924 c 3.926406,0.488096 4.386794,0.690737 3.742556,2.980194"
         transform="matrix(0.9917885,0,0,1.1896592,0.53923812,-16.069176)" />
      <text
         xml:space="preserve"
         style="font-size:9.63159px;font-family:'Luckiest Guy';-inkscape-font-specification:'Luckiest Guy';fill:none;fill-opacity:1;stroke:#ef002f;stroke-width:1.00589;stroke-linecap:round;stroke-linejoin:round;stroke-dasharray:none;stroke-opacity:1"
         x="80.689674"
         y="75.459846"
         id="text2"
         transform="scale(0.90341791,1.1069074)"><tspan
           sodipodi:role="line"
           id="tspan1"
           style="fill:none;fill-opacity:1;stroke:#ef002f;stroke-width:1.00589;stroke-dasharray:none;stroke-opacity:1"
           x="80.689674"
           y="75.459846">umponents</tspan></text>
      <path
         style="fill:#f2f2f2;fill-opacity:1;fill-rule:nonzero;stroke:none;stroke-width:1.00589;stroke-linecap:round;stroke-linejoin:round;stroke-dasharray:none;stroke-opacity:1"
         d="m 76.742682,76.133752 c 0.04237,-0.01669 0.114557,-0.03267 0.216174,-0.04622 0.04536,-0.006 0.09232,-0.0111 0.135011,-0.01714 0.03096,-0.0044 0.06079,-0.0088 0.09175,-0.01323 0.134537,-0.01903 0.273978,-0.0335 0.404615,-0.0176 0.01484,0.0018 0.02949,0.004 0.0439,0.0066 0.06821,0.01223 0.128288,0.03233 0.179609,0.05652 0.05111,0.02409 0.09389,0.05243 0.129696,0.08108 0.03798,0.0308 0.07804,0.06569 0.11014,0.12661 0.04418,0.08386 0.05341,0.182168 0.04947,0.249585 0.02599,-0.05559 0.07447,-0.155933 0.08235,-0.272275 0.0061,-0.09058 -0.01353,-0.175954 -0.05647,-0.245705 -0.0015,-0.0024 -0.003,-0.0048 -0.0045,-0.0071 -0.04685,-0.07256 -0.11627,-0.128281 -0.19668,-0.167829 -0.07846,-0.03859 -0.165426,-0.06107 -0.253332,-0.07373 -0.0188,-0.0027 -0.03765,-0.005 -0.05652,-0.0068 -0.161655,-0.0161 -0.334505,-0.0043 -0.485696,0.04382 -0.03593,0.01143 -0.06991,0.02471 -0.101423,0.03975 -0.04611,0.02201 -0.09143,0.05127 -0.132186,0.08435 -0.09038,0.07334 -0.132435,0.142442 -0.155917,0.179387 z"
         id="path6"
         sodipodi:nodetypes="cc"
         inkscape:path-effect="#path-effect23"
         inkscape:original-d="m 76.742682,76.133752 c 0.415622,-0.342966 1.561841,-0.369837 1.360367,0.4262" />
      <path
         style="fill:#f2f2f2;fill-opacity:1;fill-rule:nonzero;stroke:none;stroke-width:1.00589;stroke-linecap:round;stroke-linejoin:round;stroke-dasharray:none;stroke-opacity:1"
         d="m 81.006008,76.333528 c -0.0024,-0.03629 2.35e-4,-0.08102 0.01559,-0.127204 0.01132,-0.03403 0.02885,-0.06688 0.05393,-0.09756 0.02169,-0.02655 0.04859,-0.05095 0.08104,-0.07306 0.03,-0.02045 0.0646,-0.03884 0.103742,-0.055 0.07513,-0.03102 0.164771,-0.05288 0.264449,-0.06533 0.09809,-0.01226 0.199767,-0.01468 0.299667,-0.01029 0.0043,1.91e-4 0.0087,3.96e-4 0.0131,6.14e-4 0.102262,0.0051 0.212234,0.0177 0.322453,0.0425 0.102533,0.02307 0.20184,0.05597 0.290745,0.100323 0.08715,0.04348 0.161157,0.09639 0.217999,0.158497 0.05798,0.06335 0.09804,0.136136 0.117162,0.219318 a 0.11782702,0.11431044 58.154426 0 0 0.2032,0.05075 c 0.177494,-0.225841 0.373639,-0.364717 0.548557,-0.446999 0.06917,-0.03254 0.135958,-0.05632 0.198581,-0.07383 0.264357,-0.0739 0.545518,-0.05602 0.78529,-0.02143 0.0094,0.0014 0.01882,0.0028 0.02831,0.0042 0.09903,0.01517 0.205401,0.03578 0.315632,0.06932 0.104948,0.03193 0.20275,0.0725 0.288398,0.121824 0.0893,0.05143 0.15865,0.108524 0.208649,0.168241 0.02936,0.03506 0.05107,0.06985 0.06673,0.10357 0.02159,0.04652 0.03031,0.08825 0.0331,0.119991 0.0069,-0.03034 0.01452,-0.07478 0.01113,-0.130727 -0.0025,-0.04098 -0.01084,-0.08735 -0.02881,-0.138128 -0.03082,-0.0871 -0.08732,-0.179369 -0.174157,-0.268856 -0.08273,-0.08525 -0.185944,-0.160605 -0.301807,-0.221478 -0.120793,-0.06346 -0.246191,-0.106412 -0.362218,-0.130871 -0.01123,-0.0024 -0.02241,-0.0046 -0.03354,-0.0066 -0.299226,-0.05521 -0.610324,-0.0067 -0.910986,0.107234 -0.06959,0.02638 -0.144433,0.05866 -0.222013,0.09797 -0.153769,0.0779 -0.325266,0.188331 -0.492235,0.351528 -0.02389,-0.04817 -0.05316,-0.09384 -0.08748,-0.136787 -0.07629,-0.09547 -0.174131,-0.173254 -0.283387,-0.234102 -0.111252,-0.06196 -0.2333,-0.105817 -0.35551,-0.133662 -0.131567,-0.02998 -0.262265,-0.04122 -0.381956,-0.03767 -0.0051,1.52e-4 -0.01027,3.32e-4 -0.01537,5.39e-4 -0.116643,0.0047 -0.235889,0.0239 -0.34772,0.05863 -0.114061,0.03543 -0.21537,0.08548 -0.296121,0.147743 -0.04212,0.03248 -0.07757,0.06744 -0.106216,0.104129 -0.03102,0.03974 -0.05308,0.08025 -0.06758,0.120319 -0.01667,0.04609 -0.02268,0.08977 -0.02252,0.129476 2.23e-4,0.05319 0.01157,0.09904 0.02217,0.132897 z"
         id="path7"
         sodipodi:nodetypes="ccc"
         inkscape:path-effect="#path-effect22"
         inkscape:original-d="m 81.006008,76.333528 c -0.137852,-0.737149 1.726554,-0.78182 1.893358,0.07059 0.931062,-1.144992 2.608886,-0.558482 2.56296,0.117851" />
      <path
         style="fill:#f2f2f2;fill-opacity:1;fill-rule:nonzero;stroke:none;stroke-width:1.00589;stroke-linecap:round;stroke-linejoin:round;stroke-dasharray:none;stroke-opacity:1"
         d="m 87.626513,75.970397 c 0.07528,-0.0386 0.205135,-0.08671 0.403415,-0.104274 0.1506,-0.01334 0.309072,-0.0067 0.470798,0.01183 0.0635,0.0073 0.123319,0.01585 0.179286,0.02449 0.268695,0.04146 0.580927,0.118815 0.853371,0.219276 0.01955,0.0072 0.03933,0.01469 0.0593,0.02245 0.135473,0.05267 0.281328,0.118484 0.426671,0.200315 0.153796,0.08659 0.289986,0.181532 0.406779,0.283069 0.114842,0.09984 0.19715,0.193916 0.261135,0.278725 0.01286,0.01704 0.02548,0.03416 0.03786,0.05154 0.115214,0.161664 0.170709,0.297964 0.190488,0.399481 0.01707,-0.09083 0.04854,-0.264783 -0.02407,-0.481783 -0.0079,-0.02367 -0.01688,-0.04711 -0.02685,-0.07019 -0.04958,-0.114728 -0.130103,-0.241623 -0.249322,-0.37099 -0.121142,-0.131455 -0.269381,-0.25157 -0.435504,-0.357102 -0.157022,-0.09975 -0.31742,-0.178509 -0.465011,-0.23891 -0.02186,-0.0089 -0.04352,-0.01753 -0.06494,-0.02577 -0.312346,-0.120081 -0.630792,-0.187782 -0.946563,-0.193457 -0.0622,-0.0011 -0.129497,6.94e-4 -0.199571,0.0063 -0.17846,0.01432 -0.352075,0.05141 -0.505102,0.111275 -0.202186,0.0791 -0.313196,0.175908 -0.372174,0.233707 z"
         id="path8"
         sodipodi:nodetypes="cc"
         inkscape:path-effect="#path-effect21"
         inkscape:original-d="m 87.626513,75.970397 c 0.859028,-0.6192 3.284977,0.148202 3.289102,1.3869" />
      <path
         style="fill:#f2f2f2;fill-opacity:1;fill-rule:nonzero;stroke:none;stroke-width:1.00589;stroke-linecap:round;stroke-linejoin:round;stroke-dasharray:none;stroke-opacity:1"
         d="m 92.928762,76.280922 c 0.0604,-0.06064 0.162603,-0.131702 0.327473,-0.168969 0.105771,-0.02391 0.215076,-0.0296 0.322602,-0.02929 0.02461,7.2e-5 0.04958,6.58e-4 0.07489,0.0017 0.142564,0.006 0.299238,0.02773 0.463961,0.06202 0.118333,0.02464 0.24328,0.05631 0.372059,0.09451 0.04387,0.01302 0.08845,0.02699 0.133653,0.04195 0.350897,0.1161 0.68309,0.272101 0.979274,0.4464 2e-6,10e-7 0.0043,0.0026 0.0043,0.0026 0.141167,0.08325 0.276937,0.166292 0.406531,0.266978 0.166369,0.129258 0.261175,0.242339 0.310177,0.319791 -0.01465,-0.08776 -0.04608,-0.243638 -0.166162,-0.444708 -0.09127,-0.152823 -0.214321,-0.297789 -0.349636,-0.416483 -0.0014,-0.0012 -0.0028,-0.0025 -0.0043,-0.0037 -0.286233,-0.249737 -0.666033,-0.448181 -1.051535,-0.569752 -0.05077,-0.01601 -0.101083,-0.03052 -0.150768,-0.04357 -0.146088,-0.03838 -0.289578,-0.06386 -0.427505,-0.0768 -0.192134,-0.01803 -0.376444,-0.01201 -0.544383,0.01906 -0.02971,0.0055 -0.05895,0.01179 -0.08767,0.01888 -0.125341,0.03097 -0.250324,0.08366 -0.356513,0.159258 -0.16385,0.116649 -0.226719,0.24663 -0.256524,0.320165 z"
         id="path9"
         sodipodi:nodetypes="cc"
         inkscape:path-effect="#path-effect20"
         inkscape:original-d="m 92.928762,76.280922 c 0.56642,-0.856596 2.992599,-0.01602 3.394969,1.037683" />
      <path
         style="fill:#f2f2f2;fill-opacity:1;fill-rule:nonzero;stroke:none;stroke-width:1.00589;stroke-linecap:round;stroke-linejoin:round;stroke-dasharray:none;stroke-opacity:1"
         d="m 99.556267,76.391628 c 0.01884,-0.05932 0.05752,-0.147256 0.11688,-0.229226 0.04247,-0.05864 0.08876,-0.105328 0.137957,-0.143208 0.03542,-0.02727 0.06932,-0.04772 0.101051,-0.0655 0.0102,-0.0057 0.02058,-0.01129 0.0312,-0.01669 0.03963,-0.02017 0.08288,-0.0382 0.131663,-0.05232 0.0919,-0.02658 0.19999,-0.03808 0.32647,-0.02632 0.096,0.0089 0.19205,0.03041 0.2819,0.06001 0.0417,0.01375 0.0819,0.02872 0.11974,0.04405 0.14551,0.05891 0.32102,0.149036 0.48929,0.268104 0.0941,0.0666 0.20636,0.154331 0.31825,0.267582 0.11887,0.120312 0.22082,0.252864 0.29806,0.394602 0.10595,0.194391 0.13977,0.359433 0.151,0.464304 0.008,-0.103252 0.0104,-0.278308 -0.0597,-0.502668 -0.0515,-0.164629 -0.1329,-0.327028 -0.23868,-0.480071 -0.0992,-0.143549 -0.20737,-0.260787 -0.30195,-0.348232 -0.17436,-0.161211 -0.35317,-0.277422 -0.52729,-0.358485 -0.0437,-0.02036 -0.0907,-0.04014 -0.14041,-0.05843 -0.10613,-0.03901 -0.22505,-0.07328 -0.35054,-0.09021 -0.16464,-0.02221 -0.32953,-0.01278 -0.477331,0.04332 -0.07905,0.03 -0.147784,0.07142 -0.204516,0.121348 -0.01501,0.01321 -0.02902,0.02688 -0.04203,0.04089 -0.04061,0.04375 -0.07452,0.09541 -0.10081,0.152739 -0.03602,0.07856 -0.05487,0.161294 -0.06307,0.241955 -0.01136,0.111726 -0.0015,0.212956 0.0029,0.272466 z"
         id="path10"
         sodipodi:nodetypes="cc"
         inkscape:path-effect="#path-effect19"
         inkscape:original-d="m 99.556267,76.391628 c 0.176466,-1.49961 2.485983,-0.359882 2.503463,0.965388" />
      <path
         style="fill:#f2f2f2;fill-opacity:1;fill-rule:nonzero;stroke:none;stroke-width:1.00589;stroke-linecap:round;stroke-linejoin:round;stroke-dasharray:none;stroke-opacity:1"
         d="m 104.0115,75.895897 c 0.19211,-0.04851 0.43864,-0.08867 0.71624,-0.08429 0.0305,4.83e-4 0.0606,0.0017 0.0901,0.0037 0.18176,0.0119 0.36084,0.05082 0.53614,0.103823 0.0469,0.01418 0.0947,0.03103 0.14358,0.0505 0.20904,0.08324 0.40177,0.197962 0.64046,0.340731 0.015,0.009 0.0306,0.01817 0.0466,0.0276 0.28021,0.164678 0.73872,0.480034 0.89653,0.624585 -0.13316,-0.237829 -0.34496,-0.659379 -0.6382,-0.952865 -0.015,-0.01498 -0.0298,-0.02928 -0.0446,-0.04286 -0.23181,-0.21329 -0.50192,-0.345483 -0.76832,-0.413848 -0.064,-0.01641 -0.12629,-0.02887 -0.18679,-0.0384 -0.23164,-0.03645 -0.44832,-0.01364 -0.65096,0.03561 -0.0326,0.0079 -0.0652,0.01661 -0.0978,0.02599 -0.28121,0.08093 -0.5279,0.224762 -0.68305,0.319738 z"
         id="path11"
         sodipodi:nodetypes="cc"
         inkscape:path-effect="#path-effect18"
         inkscape:original-d="m 104.0115,75.895897 c 1.09295,-0.459938 2.02336,-0.254586 3.06969,1.066625" />
      <path
         style="fill:#f2f2f2;fill-opacity:1;fill-rule:nonzero;stroke:none;stroke-width:1.00589;stroke-linecap:round;stroke-linejoin:round;stroke-dasharray:none;stroke-opacity:1"
         d="m 110.51729,75.931462 c 0.0267,-0.03385 0.0721,-0.08072 0.13374,-0.119982 0.0439,-0.02793 0.09,-0.04841 0.13889,-0.06266 0.0493,-0.01437 0.0968,-0.02115 0.14224,-0.02545 0.0418,-0.004 0.0865,-0.0055 0.13449,-0.0035 0.0946,0.004 0.19886,0.02163 0.31061,0.05732 0.0728,0.02326 0.14532,0.05309 0.21509,0.08843 0.0389,0.01967 0.0767,0.04122 0.11355,0.06406 0.16418,0.101842 0.32584,0.242171 0.46589,0.375395 0.0326,0.03104 0.0668,0.06359 0.10207,0.09946 0.0806,0.08185 0.15242,0.166312 0.20686,0.256615 0.0731,0.121357 0.0944,0.221508 0.096,0.289275 0.0243,-0.0593 0.0626,-0.168344 0.0434,-0.33411 -0.0144,-0.12366 -0.0582,-0.252422 -0.12482,-0.372908 -0.029,-0.05241 -0.0608,-0.100527 -0.0933,-0.142735 -0.14473,-0.188293 -0.34269,-0.330801 -0.54524,-0.436944 -0.0447,-0.02346 -0.0907,-0.04566 -0.13752,-0.06649 -0.0839,-0.03736 -0.17167,-0.07017 -0.26168,-0.09457 -0.13753,-0.03729 -0.27441,-0.05328 -0.40235,-0.03943 -0.0651,0.007 -0.12576,0.02163 -0.18067,0.0434 -0.0597,0.02367 -0.11681,0.05848 -0.16719,0.10344 -0.0496,0.04424 -0.0878,0.09395 -0.1173,0.144837 -0.0408,0.07041 -0.0609,0.136942 -0.0728,0.176543 z"
         id="path12"
         sodipodi:nodetypes="cc"
         inkscape:path-effect="#path-effect17"
         inkscape:original-d="m 110.51729,75.931462 c 0.47645,-0.915634 2.20792,0.21666 2.05948,1.018977" />
      <path
         style="fill:#f2f2f2;fill-opacity:1;fill-rule:nonzero;stroke:none;stroke-width:1.00589;stroke-linecap:round;stroke-linejoin:round;stroke-dasharray:none;stroke-opacity:1"
         d="m 115.70459,76.010418 c 0.0849,0.01428 0.29627,0.07546 0.48643,0.08976 0.1627,0.01224 0.36382,0.0044 0.55121,-0.0021 0.13603,-0.0047 0.26136,-0.0087 0.37525,-0.0059 0.13136,0.0032 0.25111,0.01231 0.35611,0.02598 0.0944,0.01229 0.16937,0.02721 0.232,0.04254 0.0289,0.0071 0.0545,0.01405 0.0769,0.02039 0.0232,0.0065 0.0489,0.01329 0.0705,0.02027 0.0197,0.0063 0.0394,0.01389 0.0581,0.02467 0.0193,0.01115 0.0375,0.02576 0.054,0.04574 0.0184,0.02236 0.0327,0.04911 0.0431,0.07875 0.0144,0.04123 0.0193,0.0828 0.02,0.111892 0.0124,-0.02463 0.0331,-0.06489 0.0485,-0.110637 0.0113,-0.03347 0.0204,-0.07172 0.0226,-0.113586 0.002,-0.0379 -0.002,-0.07761 -0.0141,-0.118129 -0.0119,-0.03989 -0.031,-0.07774 -0.0563,-0.112454 -0.0287,-0.03944 -0.0637,-0.07238 -0.10055,-0.09829 -0.0342,-0.02411 -0.0725,-0.04464 -0.11386,-0.06198 -0.0874,-0.03663 -0.18844,-0.05898 -0.29804,-0.07215 -0.12287,-0.01477 -0.25753,-0.01815 -0.39644,-0.01698 -0.12151,0.001 -0.25244,0.0033 -0.39268,0.01117 -0.19385,0.01084 -0.39598,0.03202 -0.55689,0.06999 -0.18728,0.04419 -0.38476,0.14189 -0.46579,0.171038 z"
         id="path13"
         sodipodi:nodetypes="cc"
         inkscape:path-effect="#path-effect16"
         inkscape:original-d="m 115.70459,76.010418 c 1.53376,-0.137412 2.46614,-0.183187 2.32349,0.452017" />
      <path
         style="fill:#f2f2f2;fill-opacity:1;fill-rule:nonzero;stroke:none;stroke-width:1.00589;stroke-linecap:round;stroke-linejoin:round;stroke-dasharray:none;stroke-opacity:1"
         d="m 119.79631,75.688866 c 0.11746,0.0057 0.4225,0.03971 0.67017,0.06718 0.12645,0.01403 0.26219,0.0304 0.40366,0.05425 0.15751,0.02655 0.30299,0.05922 0.43811,0.100505 0.0861,0.02629 0.16192,0.05425 0.22987,0.08317 0.0452,0.01925 0.0874,0.03921 0.12657,0.05963 0.1048,0.05458 0.19662,0.116524 0.27459,0.184937 0.0458,0.04018 0.0901,0.08546 0.13101,0.136912 0.025,0.03138 0.0513,0.06727 0.0772,0.109009 0.0597,0.09615 0.10951,0.211233 0.14102,0.353728 0.0418,0.189135 0.039,0.374525 0.0296,0.490986 0.0316,-0.109154 0.0826,-0.294486 0.0939,-0.500352 0.009,-0.157076 -0.007,-0.304383 -0.0489,-0.43927 -0.0183,-0.05881 -0.0406,-0.111671 -0.0649,-0.158301 -0.0402,-0.0768 -0.0886,-0.145488 -0.14304,-0.206569 -0.0935,-0.104885 -0.20816,-0.191038 -0.34011,-0.25978 -0.0489,-0.02546 -0.10079,-0.04888 -0.15585,-0.07021 -0.0824,-0.03194 -0.17346,-0.05951 -0.2731,-0.08176 -0.15526,-0.03468 -0.32097,-0.05412 -0.49009,-0.06046 -0.15151,-0.0057 -0.29825,-5.41e-4 -0.42776,0.01093 -0.27381,0.02426 -0.54018,0.0952 -0.67196,0.125462 z"
         id="path14"
         sodipodi:nodetypes="cc"
         inkscape:path-effect="#path-effect15"
         inkscape:original-d="m 119.79631,75.688866 c 1.55288,-0.138194 2.78935,0.179136 2.52183,1.640315" />
    </g>
  </g>
</svg>
