<?xml version="1.0" encoding="UTF-8" standalone="no"?>
<!-- Created with Inkscape (http://www.inkscape.org/) -->

<svg
   width="15.2199mm"
   height="15.085126mm"
   viewBox="0 0 15.2199 15.085126"
   version="1.1"
   id="svg1"
   xmlns="http://www.w3.org/2000/svg"
   xmlns:svg="http://www.w3.org/2000/svg">
  <defs
     id="defs1" />
  <g
     id="layer1"
     transform="translate(-58.302019,-70.023306)">
    <g
       id="g2"
       transform="matrix(1.0082795,0,0,0.84057685,-0.54370274,13.507377)">
      <path
         d="m 71.162419,82.22912 c -0.296157,0.352057 -0.661625,0.65936 -1.096407,0.921909 -0.434781,0.262553 -0.90107,0.48035 -1.398864,0.653394 -0.497794,0.173045 -1.008192,0.301336 -1.531189,0.384875 -0.522999,0.08951 -1.020793,0.13426 -1.493382,0.13426 -0.913673,0 -1.754882,-0.155145 -2.523627,-0.465431 -0.768746,-0.310287 -1.57926,-0.632729 -1.994327,-1.279933 0.107606,-1.096501 0.240896,-0.355741 -1.767873,-1.375021 -1.304735,-0.662043 2.628673,-0.88492 -0.174919,-2.49178 -0.172193,-0.09869 0.15045,-1.728877 0.402151,-2.362806 0.15753,-0.62654 0.381223,-1.214296 0.671078,-1.763265 0.296155,-0.554936 0.655323,-1.062136 1.077503,-1.521599 0.42218,-0.465431 0.90107,-0.865224 1.436671,-1.199379 0.535601,-0.334155 1.121611,-0.593722 1.758031,-0.778701 0.636421,-0.184979 1.31695,-0.277468 2.041587,-0.277468 0.270951,0 0.560805,0.01193 0.869564,0.03581 0.308758,0.0179 0.614365,0.0537 0.916823,0.107407 0.308758,0.04773 0.608065,0.116357 0.89792,0.205864 0.289853,0.08951 0.554504,0.199896 0.79395,0.331171 l -0.26465,3.419124 c -0.352868,-0.125308 -0.718336,-0.208848 -1.096408,-0.250617 -0.371769,-0.04773 -0.737239,-0.0716 -1.096407,-0.0716 -0.504095,0 -0.976684,0.07458 -1.417768,0.223766 -0.434781,0.143209 -0.816004,0.352055 -1.143666,0.62654 -0.321361,0.274485 -0.576558,0.60864 -0.765594,1.002465 -0.189036,0.393825 -0.283553,0.838371 -0.283553,1.333637 0,0.310288 0.04411,0.611624 0.132324,0.90401 0.08822,0.286418 0.220542,0.543002 0.396976,0.76975 0.182734,0.220781 0.406426,0.399792 0.671076,0.537035 0.270952,0.137242 0.58286,0.205863 0.935727,0.205863 0.239445,0 0.485192,-0.02983 0.737239,-0.08951 0.258349,-0.05967 0.478891,-0.16111 0.661625,-0.304318 l 0.03781,-0.698147 -2.26843,-0.03581 0.113422,-2.685176 c 0.938878,-0.02983 1.877756,-0.0537 2.816633,-0.0716 0.938876,-0.02387 1.884055,-0.0537 2.835535,-0.08951 1.127735,1.527479 -0.63019,3.022511 1.228489,3.631066 2.148796,0.703544 -3.896734,1.350354 -1.115065,2.383722 z"
         id="text1"
         style="font-size:23.055px;font-family:'Luckiest Guy';-inkscape-font-specification:'Luckiest Guy';fill:none;stroke:#ef002f;stroke-width:1.56975;stroke-linecap:round;stroke-linejoin:round;stroke-opacity:1"
         aria-label="G"
         transform="matrix(0.9917885,0,0,1.1896592,0.53923812,-16.069176)" />
      <path
         style="fill:#ffff13;fill-opacity:1;stroke:#ffff13;stroke-width:0.264583;stroke-linecap:round;stroke-linejoin:round;stroke-dasharray:none;stroke-opacity:1"
         d="m 60.974206,69.459012 c -0.595611,-0.595272 -0.101333,-1.294173 0.144246,-1.442259 0.312778,-0.18309 1.231441,-0.264939 1.297898,0.32943 l 0.943586,-0.557119 c -1.105508,1.072128 -0.901505,1.16966 -2.935611,2.182171 z"
         id="path1" />
      <path
         style="fill:#ef002f;fill-opacity:1;fill-rule:nonzero;stroke:none;stroke-width:0.264583;stroke-linecap:round;stroke-linejoin:round;stroke-dasharray:none;stroke-opacity:1"
         d="m 62.372195,67.973916 c -0.01952,-5.59e-4 -0.06481,-0.02786 -0.116274,-0.005 -0.132746,0.05899 -0.404642,0.360154 -0.618171,0.537662 -0.07009,0.05826 -0.14848,0.121641 -0.242776,0.192809 -0.319764,0.241332 -0.707785,0.469671 -0.721097,0.542851 -0.003,0.01668 0.01529,0.03321 0.01834,0.03985 0.0038,0.0062 0.0073,0.03067 0.02281,0.03747 0.06545,0.02868 0.485825,-0.145534 0.84461,-0.390508 0.102216,-0.06979 0.191253,-0.138618 0.264075,-0.199581 0.227249,-0.190243 0.528681,-0.497931 0.570639,-0.64066 0.01633,-0.05555 -0.0184,-0.0958 -0.02216,-0.114905 z"
         id="path2"
         transform="translate(0.09764062,0.12193412)" />
      <path
         style="fill:#f2f2f2;fill-rule:nonzero;stroke:none;stroke-width:0.264583;stroke-linecap:round;stroke-linejoin:round"
         d="m 69.316382,75.7273 c 0.168741,0.01517 0.4607,0.05551 0.743163,0.06118 0.16177,0.0032 0.322376,-0.0021 0.48097,-0.0064 0.146399,-0.004 0.271708,-0.0062 0.379989,0.0015 0.07653,0.0054 0.139431,0.01553 0.193063,0.03115 0.02165,0.0063 0.04234,0.01372 0.06215,0.0223 0.03308,0.01434 0.06363,0.03193 0.09257,0.05328 0.02835,0.02092 0.0556,0.04579 0.08259,0.0755 0.057,0.06275 0.110509,0.144405 0.169218,0.250022 0.04002,0.07199 0.07876,0.148275 0.119965,0.228593 0.02771,0.05402 0.06397,0.122778 0.09751,0.186734 0.115467,0.220168 0.241207,0.466614 0.30354,0.606627 -0.02879,-0.137314 -0.07455,-0.430006 -0.128919,-0.670602 -0.01705,-0.07545 -0.03523,-0.146474 -0.05533,-0.210886 -0.02779,-0.08906 -0.06186,-0.178435 -0.101261,-0.261221 -0.05791,-0.121682 -0.126997,-0.228791 -0.211187,-0.314001 -0.04067,-0.04116 -0.08394,-0.07633 -0.130218,-0.105982 -0.04723,-0.03027 -0.09598,-0.05377 -0.146097,-0.07224 -0.02984,-0.01099 -0.05983,-0.02008 -0.08983,-0.02772 -0.07411,-0.01888 -0.153935,-0.0301 -0.242222,-0.03517 -0.122668,-0.007 -0.260611,-0.002 -0.407785,0.0094 -0.152113,0.01184 -0.330745,0.03214 -0.480162,0.05382 -0.258066,0.03744 -0.591157,0.105856 -0.731708,0.124099 z"
         id="path4"
         transform="matrix(0.9917885,0,0,1.1896592,0.53923812,-16.069176)" />
      <path
         style="fill:#f2f2f2;fill-rule:nonzero;stroke:none;stroke-width:0.264583;stroke-linecap:round;stroke-linejoin:round"
         d="m 72.275242,79.215344 c 0.01582,0.01624 0.02913,0.03364 0.04495,0.04988 0.01623,0.01664 0.03653,0.03553 0.06107,0.05482 0.01211,0.0095 0.02514,0.01906 0.03881,0.02815 0.03515,0.02338 0.07809,0.04913 0.130681,0.08129 0.13459,0.0823 0.271613,0.171042 0.398342,0.285218 0.06121,0.05515 0.11692,0.113248 0.163673,0.175254 0.04815,0.06386 0.08457,0.128907 0.109068,0.19657 0.01305,0.03604 0.02256,0.0724 0.02884,0.109421 0.0068,0.04025 0.01154,0.08413 0.01094,0.133538 -0.0016,0.130067 -0.04093,0.249514 -0.07805,0.327536 0.05397,-0.05982 0.146392,-0.162921 0.201729,-0.300798 0.0218,-0.05432 0.03575,-0.10893 0.04146,-0.162374 0.0053,-0.04927 0.0049,-0.100507 -0.0021,-0.153117 -0.01318,-0.09964 -0.04892,-0.196932 -0.10385,-0.288665 -0.0528,-0.08817 -0.120436,-0.166408 -0.194062,-0.233433 -0.145562,-0.132511 -0.325539,-0.232553 -0.480832,-0.28919 -0.0632,-0.02305 -0.118916,-0.03761 -0.163998,-0.04478 -0.01793,-0.0029 -0.0356,-0.0044 -0.05257,-0.0048 -0.0344,-8.83e-4 -0.06448,0.0028 -0.08897,0.0088 -0.03535,0.0086 -0.05471,0.02054 -0.06515,0.02673 z"
         id="path5"
         transform="matrix(0.9917885,0,0,1.1896592,0.53923812,-16.069176)" />
      <path
         style="fill:#f2f2f2;fill-rule:nonzero;stroke:none;stroke-width:0.264583;stroke-linecap:round;stroke-linejoin:round"
         d="m 66.58545,70.194924 c 0.107643,0.02576 0.331776,0.09272 0.613662,0.152231 0.452698,0.09557 1.117758,0.216211 1.683287,0.362763 0.290316,0.07523 0.522388,0.148946 0.71405,0.225836 0.05863,0.02352 0.111582,0.04658 0.159834,0.06916 0.111667,0.05226 0.2089,0.106926 0.291542,0.166874 0.108711,0.07886 0.188976,0.164469 0.247238,0.264544 0.06195,0.106415 0.10035,0.231622 0.119441,0.381994 0.01673,0.131759 0.01709,0.271297 0.01095,0.406259 -0.0025,0.05411 -0.0055,0.109426 -0.0093,0.167354 -0.01975,0.298311 -0.05953,0.617455 -0.08812,0.783174 0.05716,-0.144044 0.196511,-0.462483 0.282275,-0.747546 0.01732,-0.05757 0.03278,-0.114533 0.04581,-0.170464 0.03211,-0.137931 0.05873,-0.294279 0.06375,-0.450966 0.0057,-0.179286 -0.01649,-0.360916 -0.09043,-0.532971 -0.0718,-0.16707 -0.185138,-0.308311 -0.33579,-0.425943 -0.111241,-0.08686 -0.237945,-0.157031 -0.371531,-0.214146 -0.05818,-0.02487 -0.120905,-0.04867 -0.188618,-0.07142 -0.21827,-0.07335 -0.478157,-0.132433 -0.781319,-0.182497 -0.560254,-0.09252 -1.306265,-0.155857 -1.733941,-0.178112 -0.288325,-0.015 -0.522082,-0.0047 -0.632755,-0.0061 z"
         id="path3"
         transform="matrix(0.9917885,0,0,1.1896592,0.53923812,-16.069176)" />
    </g>
  </g>
</svg>
