<?xml version="1.0" encoding="UTF-8" standalone="no"?>
<!-- Created with Inkscape (http://www.inkscape.org/) -->
<svg
   width="24.760349mm"
   height="15.114469mm"
   viewBox="0 0 24.760349 15.114469"
   version="1.1"
   id="svg1"
   xmlns="http://www.w3.org/2000/svg"
   xmlns:svg="http://www.w3.org/2000/svg">
  <defs
     id="defs1" />
  <g
     id="layer1"
     transform="translate(-59.271787,-157.42674)">
    <rect
       style="fill:none;fill-opacity:1;stroke:#f8f8f8;stroke-width:1.06013;stroke-linecap:round;stroke-linejoin:round;stroke-dasharray:none;stroke-opacity:0.909804"
       id="logo-card3"
       width="8.066885"
       height="11.328394"
       x="127.19862"
       y="110.56328"
       rx="0.7425735"
       ry="0.80515331"
       transform="matrix(0.90491519,0.42559195,-0.34965497,0.93687854,0,0)" />
    <path
       id="logo-card2"
       style="fill:none;fill-opacity:1;stroke:#181818;stroke-width:1.05833;stroke-linecap:round;stroke-linejoin:round;stroke-dasharray:none;stroke-opacity:0.909804"
       d="m 68.672811,158.1335 c -0.40362,0 -0.728638,0.36494 -0.728638,0.81804 v 2.08928 l 2.8236,6.68124 c 0.173001,0.40936 0.01843,0.89514 -0.346232,1.08934 l -1.557527,0.82941 h 6.266284 c 0.03892,0 0.07697,-0.004 0.114205,-0.0108 l -2.083594,-0.97979 C 72.78864,168.47514 72.614787,167.9979 72.770752,167.58 l 3.088184,-8.27546 v -0.35295 c 0,-0.4531 -0.325019,-0.81804 -0.728638,-0.81804 z" />
    <rect
       style="fill:none;fill-opacity:1;stroke:#f8f8f8;stroke-width:1.06046;stroke-linecap:round;stroke-linejoin:round;stroke-dasharray:none;stroke-opacity:0.909804"
       id="logo-card1"
       width="8.1015596"
       height="11.286811"
       x="-8.2016726"
       y="171.54498"
       rx="0.74576533"
       ry="0.80219787"
       transform="matrix(0.88263626,-0.47005663,0.38927482,0.92112166,0,0)" />
  </g>
</svg>
